<svg width="927" height="120" viewBox="0 0 927 120" fill="none" xmlns="http://www.w3.org/2000/svg">
<path d="M0 118.5V1.5H10L89.5 68.5V42.5H117V118.5H107L27 51.5V118.5H0Z" fill="#4154F1"/>
<path d="M62.5 28L31 1.5H149C169.435 1.5 186 18.0655 186 38.5V83.5C186 102.83 170.33 118.5 151 118.5H129V91H147C154.18 91 160 85.1797 160 78V41C160 33.8203 154.18 28 147 28H62.5Z" fill="#4154F1"/>
<path d="M282.1 88H270.938L245.664 49.8092V88H234.501V32.2686H245.664L270.938 70.5391V32.2686H282.1V88ZM334.192 64.958C334.192 66.5526 334.086 67.9877 333.873 69.2634H301.583C301.848 72.4526 302.965 74.9508 304.931 76.758C306.898 78.5653 309.316 79.4689 312.187 79.4689C316.333 79.4689 319.283 77.6882 321.037 74.1269H333.076C331.8 78.3792 329.355 81.8873 325.741 84.6513C322.126 87.3622 317.688 88.7176 312.426 88.7176C308.174 88.7176 304.347 87.7874 300.945 85.927C297.596 84.0135 294.965 81.3292 293.051 77.8743C291.191 74.4193 290.261 70.4328 290.261 65.9147C290.261 61.3435 291.191 57.3304 293.051 53.8755C294.912 50.4205 297.516 47.7628 300.865 45.9024C304.214 44.0421 308.067 43.1119 312.426 43.1119C316.625 43.1119 320.372 44.0155 323.668 45.8227C327.016 47.6299 329.594 50.2079 331.402 53.5565C333.262 56.8521 334.192 60.6525 334.192 64.958ZM322.631 61.7688C322.578 58.8985 321.542 56.6129 319.522 54.912C317.502 53.1579 315.03 52.2809 312.107 52.2809C309.343 52.2809 307.004 53.1313 305.091 54.8322C303.23 56.48 302.087 58.7922 301.662 61.7688H322.631ZM366.737 88L357.648 74.2864L349.595 88H337.636L352.067 65.835L337.476 43.8295H350.073L359.083 57.4633L367.215 43.8295H379.175L364.664 65.835L379.334 88H366.737ZM405.011 88.7176C400.758 88.7176 396.931 87.7874 393.53 85.927C390.128 84.0135 387.443 81.3292 385.477 77.8743C383.563 74.4193 382.607 70.4328 382.607 65.9147C382.607 61.3967 383.59 57.4102 385.557 53.9552C387.576 50.5002 390.314 47.8425 393.769 45.9822C397.224 44.0686 401.077 43.1119 405.33 43.1119C409.582 43.1119 413.436 44.0686 416.891 45.9822C420.345 47.8425 423.056 50.5002 425.023 53.9552C427.043 57.4102 428.053 61.3967 428.053 65.9147C428.053 70.4328 427.016 74.4193 424.943 77.8743C422.923 81.3292 420.159 84.0135 416.651 85.927C413.196 87.7874 409.316 88.7176 405.011 88.7176ZM405.011 78.9905C407.031 78.9905 408.917 78.5121 410.672 77.5553C412.479 76.5454 413.914 75.0571 414.977 73.0904C416.04 71.1238 416.572 68.7319 416.572 65.9147C416.572 61.7156 415.455 58.4998 413.223 56.2674C411.044 53.9818 408.359 52.839 405.17 52.839C401.981 52.839 399.297 53.9818 397.117 56.2674C394.991 58.4998 393.928 61.7156 393.928 65.9147C393.928 70.1139 394.965 73.3562 397.038 75.6418C399.164 77.8743 401.821 78.9905 405.011 78.9905ZM447.403 50.6863C448.838 48.3475 450.698 46.5137 452.984 45.1849C455.323 43.856 457.98 43.1916 460.957 43.1916V54.912H458.007C454.499 54.912 451.841 55.7358 450.034 57.3836C448.28 59.0314 447.403 61.9016 447.403 65.9945V88H436.241V43.8295H447.403V50.6863ZM465.605 65.7553C465.605 61.2904 466.482 57.3304 468.236 53.8755C470.043 50.4205 472.462 47.7628 475.492 45.9024C478.574 44.0421 482.003 43.1119 485.777 43.1119C489.072 43.1119 491.943 43.7763 494.388 45.1051C496.886 46.434 498.879 48.1083 500.367 50.1281V43.8295H511.609V88H500.367V81.5419C498.932 83.6148 496.939 85.3423 494.388 86.7243C491.889 88.0532 488.993 88.7176 485.697 88.7176C481.976 88.7176 478.574 87.7608 475.492 85.8473C472.462 83.9338 470.043 81.2495 468.236 77.7945C466.482 74.2864 465.605 70.2733 465.605 65.7553ZM500.367 65.9147C500.367 63.2039 499.836 60.8917 498.773 58.9782C497.71 57.0115 496.275 55.5232 494.467 54.5133C492.66 53.4502 490.72 52.9187 488.647 52.9187C486.574 52.9187 484.661 53.4237 482.906 54.4336C481.152 55.4435 479.717 56.9318 478.601 58.8985C477.538 60.812 477.006 63.0976 477.006 65.7553C477.006 68.4129 477.538 70.7517 478.601 72.7715C479.717 74.7382 481.152 76.2531 482.906 77.3161C484.714 78.3792 486.627 78.9108 488.647 78.9108C490.72 78.9108 492.66 78.4058 494.467 77.3959C496.275 76.3328 497.71 74.8445 498.773 72.931C499.836 70.9643 500.367 68.6256 500.367 65.9147Z" fill="black"/>
<path d="M541.965 32.3483C547.812 32.3483 552.942 33.4911 557.353 35.7767C561.818 38.0623 565.247 41.3312 567.639 45.5835C570.084 49.7826 571.306 54.6728 571.306 60.2539C571.306 65.835 570.084 70.7251 567.639 74.9242C565.247 79.0702 561.818 82.286 557.353 84.5716C552.942 86.8572 547.812 88 541.965 88H522.511V32.3483H541.965ZM541.567 78.5121C547.414 78.5121 551.932 76.9175 555.121 73.7283C558.31 70.5391 559.905 66.0476 559.905 60.2539C559.905 54.4602 558.31 49.9421 555.121 46.6997C551.932 43.4042 547.414 41.7565 541.567 41.7565H533.673V78.5121H541.567ZM621.919 43.8295L594.571 108.889H582.691L592.259 86.8838L574.559 43.8295H587.077L598.478 74.6851L610.039 43.8295H621.919ZM652.413 43.1916C657.675 43.1916 661.927 44.8659 665.17 48.2146C668.412 51.5101 670.033 56.1345 670.033 62.0877V88H658.871V63.6025C658.871 60.0944 657.994 57.4102 656.24 55.5498C654.486 53.6363 652.094 52.6795 649.064 52.6795C645.981 52.6795 643.536 53.6363 641.729 55.5498C639.975 57.4102 639.098 60.0944 639.098 63.6025V88H627.936V43.8295H639.098V49.3308C640.586 47.4173 642.473 45.929 644.759 44.8659C647.098 43.7497 649.649 43.1916 652.413 43.1916ZM677.778 65.7553C677.778 61.2904 678.655 57.3304 680.409 53.8755C682.216 50.4205 684.635 47.7628 687.664 45.9024C690.747 44.0421 694.176 43.1119 697.95 43.1119C701.245 43.1119 704.115 43.7763 706.56 45.1051C709.059 46.434 711.052 48.1083 712.54 50.1281V43.8295H723.782V88H712.54V81.5419C711.105 83.6148 709.112 85.3423 706.56 86.7243C704.062 88.0532 701.165 88.7176 697.87 88.7176C694.149 88.7176 690.747 87.7608 687.664 85.8473C684.635 83.9338 682.216 81.2495 680.409 77.7945C678.655 74.2864 677.778 70.2733 677.778 65.7553ZM712.54 65.9147C712.54 63.2039 712.009 60.8917 710.946 58.9782C709.882 57.0115 708.447 55.5232 706.64 54.5133C704.833 53.4502 702.893 52.9187 700.82 52.9187C698.747 52.9187 696.833 53.4237 695.079 54.4336C693.325 55.4435 691.89 56.9318 690.774 58.8985C689.711 60.812 689.179 63.0976 689.179 65.7553C689.179 68.4129 689.711 70.7517 690.774 72.7715C691.89 74.7382 693.325 76.2531 695.079 77.3161C696.886 78.3792 698.8 78.9108 700.82 78.9108C702.893 78.9108 704.833 78.4058 706.64 77.3959C708.447 76.3328 709.882 74.8445 710.946 72.931C712.009 70.9643 712.54 68.6256 712.54 65.9147ZM789.538 43.1916C794.96 43.1916 799.319 44.8659 802.614 48.2146C805.963 51.5101 807.637 56.1345 807.637 62.0877V88H796.475V63.6025C796.475 60.1476 795.598 57.5165 793.844 55.7093C792.09 53.8489 789.698 52.9187 786.668 52.9187C783.638 52.9187 781.22 53.8489 779.413 55.7093C777.659 57.5165 776.782 60.1476 776.782 63.6025V88H765.619V63.6025C765.619 60.1476 764.742 57.5165 762.988 55.7093C761.234 53.8489 758.842 52.9187 755.812 52.9187C752.73 52.9187 750.285 53.8489 748.477 55.7093C746.723 57.5165 745.846 60.1476 745.846 63.6025V88H734.684V43.8295H745.846V49.1714C747.281 47.311 749.115 45.8493 751.348 44.7862C753.633 43.7231 756.131 43.1916 758.842 43.1916C762.297 43.1916 765.38 43.9358 768.091 45.4241C770.802 46.8592 772.901 48.9322 774.39 51.643C775.825 49.0916 777.898 47.0452 780.609 45.5038C783.373 43.9623 786.349 43.1916 789.538 43.1916ZM823.89 38.5673C821.924 38.5673 820.276 37.956 818.947 36.7335C817.671 35.4578 817.033 33.8898 817.033 32.0294C817.033 30.169 817.671 28.6276 818.947 27.405C820.276 26.1293 821.924 25.4915 823.89 25.4915C825.857 25.4915 827.478 26.1293 828.754 27.405C830.083 28.6276 830.747 30.169 830.747 32.0294C830.747 33.8898 830.083 35.4578 828.754 36.7335C827.478 37.956 825.857 38.5673 823.89 38.5673ZM829.392 43.8295V88H818.229V43.8295H829.392ZM837.55 65.9147C837.55 61.3435 838.48 57.357 840.34 53.9552C842.201 50.5002 844.779 47.8425 848.074 45.9822C851.37 44.0686 855.143 43.1119 859.396 43.1119C864.871 43.1119 869.389 44.4939 872.95 47.2579C876.564 49.9687 878.983 53.7957 880.205 58.739H868.166C867.528 56.8255 866.439 55.3372 864.897 54.2741C863.409 53.1579 861.548 52.5998 859.316 52.5998C856.127 52.5998 853.602 53.7692 851.742 56.1079C849.881 58.3935 848.951 61.6624 848.951 65.9147C848.951 70.1139 849.881 73.3828 851.742 75.7215C853.602 78.0071 856.127 79.1499 859.316 79.1499C863.834 79.1499 866.784 77.1301 868.166 73.0904H880.205C878.983 77.8743 876.564 81.6747 872.95 84.4919C869.335 87.309 864.817 88.7176 859.396 88.7176C855.143 88.7176 851.37 87.7874 848.074 85.927C844.779 84.0135 842.201 81.3558 840.34 77.954C838.48 74.499 837.55 70.4859 837.55 65.9147ZM905.285 88.7176C901.671 88.7176 898.429 88.0797 895.558 86.804C892.688 85.4752 890.403 83.6946 888.702 81.4621C887.054 79.2297 886.15 76.758 885.991 74.0472H897.233C897.445 75.7481 898.269 77.1567 899.704 78.2729C901.193 79.3891 903.026 79.9472 905.206 79.9472C907.332 79.9472 908.98 79.522 910.149 78.6716C911.372 77.8211 911.983 76.7315 911.983 75.4026C911.983 73.9675 911.239 72.9044 909.75 72.2134C908.315 71.4693 906.003 70.672 902.814 69.8215C899.518 69.0242 896.807 68.2003 894.681 67.3499C892.608 66.4994 890.801 65.1972 889.26 63.4431C887.771 61.689 887.027 59.3237 887.027 56.3471C887.027 53.902 887.718 51.6696 889.1 49.6498C890.535 47.6299 892.555 46.0353 895.16 44.8659C897.817 43.6966 900.927 43.1119 904.488 43.1119C909.75 43.1119 913.949 44.4407 917.086 47.0984C920.222 49.7029 921.949 53.2376 922.268 57.7025H911.584C911.425 55.9484 910.681 54.5665 909.352 53.5565C908.076 52.4935 906.349 51.9619 904.169 51.9619C902.149 51.9619 900.581 52.334 899.465 53.0782C898.402 53.8223 897.871 54.8588 897.871 56.1876C897.871 57.6759 898.615 58.8187 900.103 59.616C901.591 60.3602 903.903 61.1309 907.04 61.9282C910.229 62.7255 912.86 63.5494 914.933 64.3999C917.006 65.2503 918.786 66.5791 920.275 68.3864C921.816 70.1404 922.614 72.4792 922.667 75.4026C922.667 77.954 921.949 80.2396 920.514 82.2594C919.132 84.2793 917.112 85.8739 914.454 87.0432C911.85 88.1595 908.794 88.7176 905.285 88.7176Z" fill="#4154F1"/>
</svg>
